<svg width="16" height="16" viewBox="0 0 16 16" fill="none" xmlns="http://www.w3.org/2000/svg">
<mask id="mask0_0_1016" style="mask-type:alpha" maskUnits="userSpaceOnUse" x="0" y="0" width="16" height="16">
<path fill-rule="evenodd" clip-rule="evenodd" d="M0 15.9967H16V0H0V15.9967Z" fill="white"/>
</mask>
<g mask="url(#mask0_0_1016)">
<path fill-rule="evenodd" clip-rule="evenodd" d="M14.2222 4.4445C14.2222 4.68994 14.0232 4.88894 13.7778 4.88894H11.5555C11.3101 4.88894 11.1111 4.68994 11.1111 4.4445V2.22228C11.1111 1.97683 11.3101 1.77783 11.5555 1.77783H13.7778C14.0232 1.77783 14.2222 1.97683 14.2222 2.22228V4.4445ZM14.2223 13.7779C14.2223 14.0233 14.0233 14.2223 13.7778 14.2223H2.22228C1.97683 14.2223 1.77783 14.0233 1.77783 13.7779V6.66675H3.29528C3.17539 7.09058 3.11117 7.53786 3.11117 8.00008C3.11117 10.7001 5.3 12.889 8.00005 12.889C10.7001 12.889 12.8889 10.7001 12.8889 8.00008C12.8889 7.53786 12.8247 7.09058 12.7048 6.66675H14.2223V13.7779ZM8.00003 4.88892C9.71825 4.88892 11.1111 6.28181 11.1111 8.00003C11.1111 9.71825 9.71825 11.1111 8.00003 11.1111C6.28181 11.1111 4.88892 9.71825 4.88892 8.00003C4.88892 6.28181 6.28181 4.88892 8.00003 4.88892ZM13.7778 0H2.22222C0.994945 0 0 0.994945 0 2.22222V13.7778C0 15.0051 0.994945 16 2.22222 16H13.7778C15.0051 16 16 15.0051 16 13.7778V2.22222C16 0.994945 15.0051 0 13.7778 0Z" fill="white"/>
</g>
</svg>
